<svg width="20" height="20" viewBox="0 0 20 20" fill="none" xmlns="http://www.w3.org/2000/svg">
<mask id="mask0_202_684" style="mask-type:alpha" maskUnits="userSpaceOnUse" x="0" y="0" width="20" height="20">
<rect width="20" height="20" fill="#D9D9D9"/>
</mask>
<g mask="url(#mask0_202_684)">
<path d="M5.00008 14.1667H15.0001L11.8751 7L9.5 12.5L7.50008 9.83333L5.00008 14.1667ZM3.33341 17.5C2.87508 17.5 2.48286 17.3369 2.15675 17.0108C1.83008 16.6842 1.66675 16.2917 1.66675 15.8333V5.83333C1.66675 5.375 1.83008 4.98278 2.15675 4.65667C2.48286 4.33 2.87508 4.16667 3.33341 4.16667H5.95841L7.50008 2.5H12.5001L14.0417 4.16667H16.6667C17.1251 4.16667 17.5176 4.33 17.8442 4.65667C18.1704 4.98278 18.3334 5.375 18.3334 5.83333V15.8333C18.3334 16.2917 18.1704 16.6842 17.8442 17.0108C17.5176 17.3369 17.1251 17.5 16.6667 17.5H3.33341ZM16.6667 15.8333V5.83333H13.2917L11.7709 4.16667H8.22925L6.70841 5.83333H3.33341V15.8333H16.6667Z" fill="#3D001B"/>
</g>
</svg>
