<svg width="19" height="18" viewBox="0 0 19 18" fill="none" xmlns="http://www.w3.org/2000/svg">
<path d="M11.5 9.83333C11.0392 9.83333 10.6667 10.2067 10.6667 10.6667V13C10.6667 13.4592 10.2933 13.8333 9.83333 13.8333H8.33333V3.33333C8.33333 2.62167 7.88 1.98583 7.19833 1.74917L6.95167 1.66667H9.83333C10.2933 1.66667 10.6667 2.04083 10.6667 2.5V4C10.6667 4.46 11.0392 4.83333 11.5 4.83333C11.9608 4.83333 12.3333 4.46 12.3333 4V2.5C12.3333 1.12167 11.2117 0 9.83333 0H1.875C1.84333 0 1.81667 0.0141666 1.78583 0.0183333C1.74583 0.015 1.7075 0 1.66667 0C0.7475 0 0 0.7475 0 1.66667V14.6667C0 15.3783 0.453333 16.0142 1.135 16.2508L6.15 17.9225C6.32 17.975 6.48917 18 6.66667 18C7.58583 18 8.33333 17.2525 8.33333 16.3333V15.5H9.83333C11.2117 15.5 12.3333 14.3783 12.3333 13V10.6667C12.3333 10.2067 11.9608 9.83333 11.5 9.83333Z" fill="#3D001B"/>
<path d="M18.7558 6.74416L15.4224 3.41083C15.1841 3.17249 14.8258 3.10083 14.5141 3.22999C14.2033 3.35916 13.9999 3.66333 13.9999 3.99999V6.49999H10.6666C10.2066 6.49999 9.83325 6.87333 9.83325 7.33333C9.83325 7.79333 10.2066 8.16666 10.6666 8.16666H13.9999V10.6667C13.9999 11.0033 14.2033 11.3075 14.5141 11.4367C14.8258 11.5658 15.1841 11.4942 15.4224 11.2558L18.7558 7.92249C19.0816 7.59666 19.0816 7.06999 18.7558 6.74416Z" fill="#3D001B"/>
</svg>
