<svg width="20" height="18" viewBox="0 0 20 18" fill="none" xmlns="http://www.w3.org/2000/svg">
<path d="M18.2563 6.40005C17.8916 6.34708 17.5435 6.21252 17.238 6.00638C16.9326 5.80025 16.6775 5.52785 16.4919 5.20949C16.3063 4.89112 16.1949 4.53498 16.166 4.16759C16.1371 3.8002 16.1915 3.43102 16.325 3.08755C16.4099 2.86301 16.4224 2.61752 16.3608 2.38551C16.2991 2.1535 16.1664 1.94659 15.9813 1.7938C15.1638 1.10734 14.2333 0.568081 13.2313 0.200054C13.0031 0.115293 12.754 0.104703 12.5194 0.169792C12.2849 0.234881 12.0769 0.372329 11.925 0.562554C11.6964 0.854837 11.4043 1.09123 11.0708 1.25381C10.7372 1.41639 10.3711 1.50088 10 1.50088C9.62897 1.50088 9.26279 1.41639 8.92926 1.25381C8.59572 1.09123 8.30359 0.854837 8.07501 0.562554C7.92315 0.372329 7.71513 0.234881 7.48059 0.169792C7.24604 0.104703 6.99694 0.115293 6.76876 0.200054C5.84356 0.53983 4.97851 1.0251 4.20626 1.63755C4.0116 1.79166 3.87139 2.00403 3.80616 2.24359C3.74093 2.48314 3.75411 2.73728 3.84376 2.9688C3.98799 3.32136 4.04757 3.70281 4.01775 4.08255C3.98792 4.4623 3.86951 4.82977 3.67201 5.15548C3.47452 5.4812 3.20343 5.75609 2.88051 5.95812C2.55758 6.16015 2.1918 6.28368 1.81251 6.3188C1.56627 6.34513 1.33498 6.44983 1.15271 6.61748C0.970433 6.78512 0.846801 7.00687 0.800014 7.25005C0.683637 7.82612 0.625014 8.41235 0.625014 9.00005C0.624158 9.49207 0.663876 9.98332 0.743764 10.4688C0.783523 10.7198 0.904855 10.9507 1.089 11.1258C1.27315 11.3009 1.50985 11.4105 1.76251 11.4376C2.15014 11.4739 2.5234 11.6026 2.85108 11.8129C3.17875 12.0231 3.4513 12.3088 3.64591 12.646C3.84052 12.9832 3.95152 13.3621 3.96963 13.751C3.98775 14.1399 3.91244 14.5275 3.75001 14.8813C3.64372 15.1115 3.61735 15.3705 3.6751 15.6174C3.73285 15.8642 3.8714 16.0847 4.06876 16.2438C4.88133 16.9178 5.80287 17.4483 6.79376 17.8126C6.92048 17.8564 7.05343 17.8797 7.18751 17.8813C7.37137 17.8809 7.55245 17.8364 7.71557 17.7516C7.87869 17.6668 8.0191 17.5441 8.12501 17.3938C8.34777 17.0693 8.64638 16.804 8.99491 16.621C9.34344 16.438 9.73137 16.3429 10.125 16.3438C10.5064 16.3443 10.8825 16.4338 11.2232 16.6052C11.5639 16.7767 11.8598 17.0253 12.0875 17.3313C12.239 17.5349 12.4535 17.6826 12.6977 17.7516C12.9418 17.8206 13.202 17.8068 13.4375 17.7126C14.3436 17.3479 15.1871 16.8439 15.9375 16.2188C16.126 16.0629 16.2603 15.8513 16.3209 15.6144C16.3815 15.3774 16.3655 15.1273 16.275 14.9001C16.128 14.552 16.0639 14.1746 16.0878 13.7976C16.1117 13.4206 16.2228 13.0542 16.4125 12.7275C16.6023 12.4008 16.8653 12.1227 17.1809 11.9151C17.4966 11.7075 17.8561 11.5761 18.2313 11.5313C18.4745 11.4977 18.7007 11.3875 18.8771 11.2167C19.0536 11.0459 19.171 10.8233 19.2125 10.5813C19.3129 10.06 19.3673 9.53088 19.375 9.00005C19.3751 8.44015 19.3228 7.88146 19.2188 7.3313C19.1766 7.09462 19.0609 6.87725 18.8881 6.71007C18.7153 6.5429 18.4942 6.43442 18.2563 6.40005ZM13.125 9.00005C13.125 9.61812 12.9417 10.2223 12.5984 10.7362C12.255 11.2501 11.7669 11.6507 11.1959 11.8872C10.6249 12.1237 9.99655 12.1856 9.39036 12.065C8.78417 11.9444 8.22734 11.6468 7.79031 11.2098C7.35327 10.7727 7.05564 10.2159 6.93506 9.60971C6.81448 9.00352 6.87637 8.37519 7.11289 7.80417C7.34941 7.23315 7.74995 6.74509 8.26386 6.40171C8.77776 6.05833 9.38195 5.87505 10 5.87505C10.8288 5.87505 11.6237 6.20429 12.2097 6.79035C12.7958 7.3764 13.125 8.17125 13.125 9.00005Z" fill="#3D001B"/>
</svg>
