<svg width="28" height="27" viewBox="0 0 28 27" fill="none" xmlns="http://www.w3.org/2000/svg">
<path d="M13.9998 0.166656C6.64117 0.166656 0.666504 6.14132 0.666504 13.5C0.666504 20.8587 6.64117 26.8333 13.9998 26.8333C21.3585 26.8333 27.3332 20.8587 27.3332 13.5C27.3332 6.14132 21.3585 0.166656 13.9998 0.166656ZM13.9998 2.83332C19.8865 2.83332 24.6665 7.61332 24.6665 13.5C24.6665 19.3867 19.8865 24.1667 13.9998 24.1667C8.11317 24.1667 3.33317 19.3867 3.33317 13.5C3.33317 7.61332 8.11317 2.83332 13.9998 2.83332ZM13.9998 17.4907C14.7358 17.4907 15.3332 18.088 15.3332 18.824C15.3332 19.56 14.7358 20.1573 13.9998 20.1573C13.2638 20.1573 12.6665 19.56 12.6665 18.824C12.6665 18.088 13.2638 17.4907 13.9998 17.4907ZM15.3332 14.8333V6.83332C15.3332 6.09732 14.7358 5.49999 13.9998 5.49999C13.2638 5.49999 12.6665 6.09732 12.6665 6.83332V14.8333C12.6665 15.5693 13.2638 16.1667 13.9998 16.1667C14.7358 16.1667 15.3332 15.5693 15.3332 14.8333Z" fill="#55002B"/>
</svg>
